<svg xmlns="http://www.w3.org/2000/svg" xmlns:xlink="http://www.w3.org/1999/xlink" width="136" height="46" viewBox="0 0 136 46">
    <defs>
        <linearGradient id="a" x1="0%" y1="13.73%" y2="86.266%">
            <stop offset="0%" stop-color="#FFF"/>
            <stop offset="26%" stop-color="#FFF"/>
            <stop offset="98.5%" stop-color="#FFF" stop-opacity=".231"/>
            <stop offset="100%" stop-color="#FFF"/>
        </linearGradient>
        <linearGradient id="b" x1="-198.765%" x2="-197.531%" y1="13.735%" y2="86.269%">
            <stop offset="0%" stop-color="#FFF"/>
            <stop offset="26%" stop-color="#FFF"/>
            <stop offset="98.5%" stop-color="#FFF" stop-opacity=".231"/>
            <stop offset="100%" stop-color="#FFF"/>
        </linearGradient>
        <linearGradient id="c" x1="-198.765%" x2="-197.531%" y1="13.734%" y2="86.27%">
            <stop offset="0%" stop-color="#FFF"/>
            <stop offset="26%" stop-color="#FFF"/>
            <stop offset="98.5%" stop-color="#FFF" stop-opacity=".231"/>
            <stop offset="100%" stop-color="#FFF"/>
        </linearGradient>
        <path id="d" d="M62.303 8l2.567 10.88.552 3.028.566-2.964L68.173 8h4.277l2.303 10.88.592 3.028.592-2.913L78.53 8h4.119l-5.462 19h-3.869l-2.342-11.111-.684-3.674-.685 3.674L67.265 27H63.5L58 8h4.303zm26.623 11.82h4.922l-2.421-7.476-2.5 7.476zM89.176 8h4.58l6.87 19H96.23l-1.25-3.906h-7.146L86.492 27h-4.238l6.922-19zm24.833 6.045c0-.988-.265-1.692-.796-2.114-.53-.42-1.274-.631-2.23-.631h-3.777v5.594h3.777c.956 0 1.7-.228 2.23-.683.531-.455.796-1.177.796-2.166zm4.014-.025c0 2.243-.579 3.828-1.737 4.756-1.158.928-2.812 1.392-4.961 1.392h-4.12V27h-4.026V8h8.448c1.948 0 3.501.49 4.66 1.47 1.157.98 1.736 2.496 1.736 4.55zm13.963.025c0-.988-.265-1.692-.796-2.114-.53-.42-1.274-.631-2.23-.631h-3.778v5.594h3.777c.957 0 1.7-.228 2.231-.683.53-.455.796-1.177.796-2.166zM136 14.02c0 2.243-.579 3.828-1.737 4.756-1.158.928-2.812 1.392-4.961 1.392h-4.12V27h-4.027V8h8.45c1.947 0 3.5.49 4.658 1.47 1.158.98 1.737 2.496 1.737 4.55z"/>
        <path id="e" d="M63.998 37.429c0 .654.128 1.202.383 1.644.256.441.665.662 1.229.662.437 0 .797-.205 1.079-.614.282-.409.423-.996.423-1.76 0-.773-.146-1.345-.436-1.716-.29-.371-.65-.557-1.077-.557-.476 0-.862.198-1.158.594-.295.396-.443.978-.443 1.747zm1.423-3.237c.43 0 .791.099 1.082.297.168.114.358.314.572.6V32h.908v8.414h-.85v-.85c-.22.376-.482.648-.783.816a2.092 2.092 0 0 1-1.034.251c-.627 0-1.17-.286-1.628-.86-.459-.572-.688-1.334-.688-2.285 0-.89.21-1.662.628-2.315.418-.653 1.016-.979 1.793-.979zm6.301-.029c.4 0 .786.102 1.16.306a2.2 2.2 0 0 1 .857.79c.189.309.315.668.378 1.08.056.281.084.73.084 1.347h-4.122c.017.62.152 1.117.404 1.492s.642.563 1.171.563c.494 0 .887-.177 1.182-.531.168-.206.287-.444.357-.714h.93a2.253 2.253 0 0 1-.245.75 2.663 2.663 0 0 1-.465.677c-.287.305-.642.51-1.066.617a2.99 2.99 0 0 1-.772.091c-.7 0-1.293-.277-1.78-.83-.487-.554-.73-1.33-.73-2.327 0-.982.245-1.779.735-2.391.49-.613 1.131-.92 1.922-.92zm1.507 2.706c-.038-.445-.127-.8-.267-1.067-.26-.495-.692-.742-1.297-.742-.435 0-.799.17-1.093.51-.294.341-.45.774-.467 1.3h3.124zm2.595-2.569l1.501 4.978 1.57-4.978h1.035l-2.122 6.114H76.8L74.726 34.3h1.098zm7.257-.137c.399 0 .786.102 1.16.306a2.2 2.2 0 0 1 .856.79c.19.309.315.668.378 1.08.056.281.084.73.084 1.347h-4.122c.018.62.152 1.117.404 1.492s.643.563 1.171.563c.494 0 .888-.177 1.182-.531.168-.206.287-.444.357-.714h.93a2.253 2.253 0 0 1-.245.75 2.663 2.663 0 0 1-.464.677c-.287.305-.643.51-1.066.617a2.99 2.99 0 0 1-.772.091c-.7 0-1.294-.277-1.78-.83-.487-.554-.73-1.33-.73-2.327 0-.982.245-1.779.735-2.391.49-.613 1.13-.92 1.922-.92zm1.507 2.706c-.039-.445-.128-.8-.268-1.067-.259-.495-.691-.742-1.297-.742-.434 0-.798.17-1.092.51-.294.341-.45.774-.468 1.3h3.125zm2.158-4.84h.945v8.385h-.945V32.03zm4.595 7.723c.627 0 1.056-.258 1.29-.774.232-.515.348-1.089.348-1.72 0-.571-.084-1.036-.252-1.393-.266-.564-.724-.845-1.376-.845-.577 0-.997.24-1.26.719-.262.48-.394 1.058-.394 1.735 0 .651.132 1.193.394 1.627.263.434.68.65 1.25.65zm.037-5.628c.724 0 1.337.262 1.838.787.5.525.75 1.298.75 2.318 0 .986-.22 1.8-.661 2.443-.441.643-1.126.965-2.053.965-.774 0-1.388-.285-1.844-.854-.455-.569-.682-1.333-.682-2.292 0-1.027.24-1.845.72-2.454.479-.609 1.123-.913 1.932-.913zm6.086 5.6c.441 0 .808-.201 1.1-.603.292-.401.438-1.002.438-1.8 0-.488-.064-.907-.194-1.257-.245-.673-.693-1.01-1.344-1.01-.655 0-1.103.356-1.344 1.067-.13.381-.195.864-.195 1.45 0 .472.065.874.195 1.205.245.632.693.947 1.344.947zm-2.447-5.395h.919v.81a2.39 2.39 0 0 1 .62-.644 1.878 1.878 0 0 1 1.123-.343c.637 0 1.178.265 1.623.796.444.531.667 1.29.667 2.275 0 1.332-.32 2.283-.961 2.854a2.066 2.066 0 0 1-1.418.543c-.424 0-.779-.101-1.066-.303-.168-.114-.355-.31-.562-.588v3.123h-.945v-8.523zm6.054 0h.961v6.085h-.96V34.33zm0-2.3h.961v1.164h-.96v-1.164zm2.39 2.271h.898v.868c.266-.358.548-.614.845-.77.298-.157.629-.235.993-.235.798 0 1.337.303 1.617.908.154.331.231.805.231 1.421v3.922h-.96v-3.853c0-.373-.052-.674-.153-.902-.168-.38-.473-.57-.914-.57a1.72 1.72 0 0 0-.551.073 1.42 1.42 0 0 0-.683.503 1.56 1.56 0 0 0-.307.625c-.047.215-.071.522-.071.922v3.202h-.945V34.3zm7.966-.108c.441 0 .826.118 1.155.354.179.133.36.327.546.582v-.77H114v5.56c0 .776-.105 1.389-.315 1.838-.392.83-1.133 1.244-2.221 1.244-.606 0-1.115-.147-1.528-.442-.414-.295-.645-.757-.694-1.385h.961c.046.274.137.486.273.634.214.228.55.342 1.009.342.724 0 1.199-.277 1.423-.833.133-.327.194-.911.184-1.752a1.927 1.927 0 0 1-.683.696c-.266.152-.618.228-1.056.228-.609 0-1.142-.235-1.599-.705-.456-.47-.685-1.247-.685-2.332 0-1.023.23-1.822.69-2.397.461-.575 1.017-.862 1.668-.862zm1.701 3.14c0-.758-.143-1.319-.43-1.684-.287-.366-.653-.548-1.098-.548-.665 0-1.12.338-1.365 1.016-.13.361-.194.835-.194 1.421 0 .689.128 1.213.386 1.573.257.36.603.54 1.037.54.679 0 1.157-.334 1.433-1 .154-.377.231-.816.231-1.318z"/>
    </defs>
    <g fill="none" fill-rule="evenodd">
        <path fill="url(#a)" d="M21.56 46L44 32.98 22 19.095 0 32.981z"/>
        <path fill="url(#b)" d="M21.56 36.453L44 23.433 22 9.546 0 23.433z"/>
        <path fill="url(#c)" d="M21.56 26.906L44 13.887 22 0 0 13.887z"/>
        <g>
            <use fill="#000" xlink:href="#d"/>
            <use fill="#FFF" xlink:href="#d"/>
        </g>
        <g>
            <use fill="#000" xlink:href="#e"/>
            <use fill="#FFF" xlink:href="#e"/>
        </g>
    </g>
</svg>
